<svg width="20" height="20" viewBox="0 0 19 20" fill="none" xmlns="http://www.w3.org/2000/svg">
<path d="M13.1485 5.9303C14.1054 5.00226 14.7837 4.1442 15.085 3.18691C16.2449 4.04577 17.2101 5.17528 17.8619 6.52153C19.2185 9.32296 19.2185 11.983 17.8619 14.7845C16.6704 17.2453 14.4829 18.9919 11.7124 19.6943C10.1047 20.1019 8.75253 20.1019 7.14479 19.6943C5.38318 19.2475 4.02805 18.4888 2.77627 17.2478C1.52449 16.0068 0.759057 14.6634 0.308339 12.9169C-0.10278 11.3233 -0.10278 9.98273 0.308339 8.38889C0.759057 6.64254 1.52449 5.29915 2.77627 4.05817C2.97722 3.85892 3.1818 3.6716 3.39087 3.49556C3.75789 4.3964 4.46311 5.22282 5.41905 6.12446C5.25959 6.25438 5.1169 6.38684 4.99652 6.51899C3.72633 7.91278 3.12531 9.89718 3.44677 11.6361C4.05679 14.9378 7.09173 17.0952 10.3915 16.5729C14.4006 15.9385 16.691 11.6513 14.9382 8.0621C14.551 7.26908 13.9008 6.51676 13.1485 5.9303Z" fill="#2F1893"/>
<path d="M11.0879 0C10.6436 0 10.2363 0.139554 9.87735 0.414795C9.53317 0.67867 9.30404 1.01476 9.16913 1.25916C9.03423 1.01475 8.80508 0.67867 8.46091 0.414795C8.10192 0.139554 7.69464 0 7.2504 0C6.01071 0 5.07584 1.00524 5.07584 2.33828C5.07584 3.77842 6.24216 4.76375 8.00781 6.2554C8.30764 6.50872 8.6475 6.79584 9.00074 7.10207C9.0473 7.14249 9.10709 7.16475 9.16913 7.16475C9.23117 7.16475 9.29098 7.14249 9.33754 7.10209C9.69081 6.79581 10.0306 6.5087 10.3307 6.25524C12.0961 4.76375 13.2624 3.77842 13.2624 2.33828C13.2624 1.00524 12.3275 0 11.0879 0Z" fill="#2F1893"/>
</svg>
