<?xml version="1.0" standalone="no"?>
<!DOCTYPE svg PUBLIC "-//W3C//DTD SVG 20010904//EN"
 "http://www.w3.org/TR/2001/REC-SVG-20010904/DTD/svg10.dtd">
<svg version="1.0" xmlns="http://www.w3.org/2000/svg"
 width="2048.000000pt" height="2048.000000pt" viewBox="0 0 2048.000000 2048.000000"
 preserveAspectRatio="xMidYMid meet">

<g transform="translate(0.000000,2048.000000) scale(0.100000,-0.100000)"
fill="#000000" stroke="none">
<path fill="#ffffff" d="M4420 15920 c-160 -10 -249 -26 -357 -62 -159 -53 -301 -144 -417
-269 -222 -240 -366 -617 -432 -1129 -21 -170 -30 -724 -15 -957 42 -648 184
-1392 364 -1908 321 -922 955 -1687 1718 -2073 555 -281 1362 -461 2329 -519
102 -6 118 -8 85 -15 -22 -4 -132 -26 -245 -49 -258 -51 -432 -96 -624 -160
-532 -180 -898 -422 -1117 -741 -109 -160 -176 -326 -217 -543 -25 -131 -24
-541 1 -675 57 -306 150 -560 298 -818 467 -811 1424 -1452 2171 -1452 580 0
1090 317 1517 944 l81 119 0 1749 0 1748 -102 2 c-79 1 -91 3 -53 7 37 5 8 9
-110 14 -645 33 -1108 136 -1540 341 -496 237 -857 579 -1080 1025 -163 326
-235 613 -296 1181 -12 104 -26 3710 -15 3710 2 0 40 -13 83 -29 256 -96 487
-209 713 -350 124 -77 321 -214 337 -233 9 -10 13 -396 16 -1408 5 -1470 4
-1467 51 -1753 53 -326 161 -626 300 -833 119 -178 312 -352 500 -450 85 -45
266 -111 376 -137 140 -33 193 -42 470 -72 129 -14 252 -28 273 -31 l37 -6 0
1294 0 1294 -76 145 c-474 897 -1043 1609 -1689 2114 -122 96 -466 327 -590
397 -694 392 -1555 603 -2435 597 -107 -1 -247 -5 -310 -9z"/>
<path fill="#ffffff" d="M15435 15920 c-550 -27 -1117 -150 -1624 -352 -125 -50 -351 -159
-470 -227 -35 -20 -86 -49 -115 -65 -124 -69 -443 -295 -581 -411 -33 -28 -70
-58 -83 -67 -30 -21 -225 -201 -319 -296 -334 -336 -673 -775 -930 -1202 -163
-270 -202 -340 -300 -529 l-53 -104 0 -1284 1 -1283 32 0 c36 0 316 31 497 55
477 62 798 227 1056 540 215 262 349 656 399 1178 11 116 16 442 21 1525 l6
1377 92 68 c196 146 556 354 756 437 112 47 281 110 294 110 15 0 12 -3305 -4
-3570 -44 -766 -203 -1266 -538 -1695 -127 -162 -364 -373 -557 -497 -234
-150 -571 -292 -859 -363 -56 -14 -119 -30 -141 -36 -22 -6 -64 -15 -95 -19
-30 -5 -102 -16 -160 -25 -143 -22 -354 -42 -540 -52 -126 -6 -144 -9 -95 -14
44 -4 24 -6 -72 -7 l-133 -2 0 -1742 0 -1743 44 -70 c148 -232 359 -477 537
-621 436 -355 940 -465 1454 -317 531 153 1058 513 1467 1003 243 292 433 662
523 1019 39 154 56 275 62 446 19 511 -111 865 -428 1170 -113 108 -198 173
-339 257 -251 150 -553 269 -910 358 -152 39 -458 102 -553 115 -27 4 -47 8
-45 10 1 2 84 8 183 14 576 36 1060 112 1545 241 642 171 1085 418 1521 850
304 301 547 640 734 1024 224 462 355 902 469 1578 91 537 126 1112 96 1548
-31 428 -115 782 -249 1048 -165 328 -430 535 -762 596 -161 30 -515 41 -834
26z"/>
</g>
</svg>
